<svg width="304" height="304" viewBox="0 0 304 304" fill="none" xmlns="http://www.w3.org/2000/svg">
<rect width="304" height="304" rx="152" fill="url(#paint0_linear_72_9)"/>
<rect x="10" y="10" width="284" height="284" rx="142" fill="#2E2E2E"/>
<path d="M229 100H154.336L130.064 81.8C127.637 79.9892 124.692 79.0075 121.664 79H75C71.287 79 67.726 80.475 65.1005 83.1005C62.475 85.726 61 89.287 61 93V212C61 215.713 62.475 219.274 65.1005 221.899C67.726 224.525 71.287 226 75 226H229.779C233.284 225.995 236.644 224.601 239.122 222.122C241.601 219.644 242.995 216.284 243 212.779V114C243 110.287 241.525 106.726 238.899 104.101C236.274 101.475 232.713 100 229 100ZM229 212H75V93H121.664L147.8 112.6C149.012 113.509 150.485 114 152 114H229V212Z" fill="white"/>
<defs>
<linearGradient id="paint0_linear_72_9" x1="152" y1="0" x2="152" y2="304" gradientUnits="userSpaceOnUse">
<stop stop-color="#2E3F6B"/>
<stop offset="0.47" stop-color="#AD36C0"/>
<stop offset="1" stop-color="#DD5252"/>
</linearGradient>
</defs>
</svg>
